<svg id="Layer_1" enable-background="new 0 0 512 512" height="512" viewBox="0 0 512 512" width="512" xmlns="http://www.w3.org/2000/svg"><g><path d="m256 10.998c-135.311 0-245.002 109.691-245.002 245.002 0 131.974 104.353 239.557 235.044 244.784l87.465-12.307c97.323-32.432 167.495-124.255 167.495-232.477 0-135.311-109.691-245.002-245.002-245.002z" fill="#4fabf7"/><path d="m301.899 433.814c-4.472-7.746 1.298-21.145-10.87-42.221-2.695-4.67-21.738-37.653-28.743-49.785-3.354-5.809-10.851-7.818-16.661-4.464l-1.004.58c-5.81 3.354-7.818 10.851-4.464 16.66l-4.103-7.107c-3.259-5.645-10.232-8.229-16.225-5.667-7.145 3.055-9.843 11.621-6.073 18.15l-1.288-2.232c-3.259-5.645-10.232-8.229-16.225-5.667-7.144 3.055-9.843 11.62-6.073 18.15l-20.313-35.184c-3.259-5.646-10.232-8.229-16.226-5.667-7.145 3.055-9.843 11.621-6.072 18.15l33.904 58.725c.668 1.157.246 2.636-.934 3.261-3.047 1.613-7.701 4.162-8.986 10.503-2.813 13.885 3.092 28.089 14.924 35.888 10.965 7.026-2.346.024 40.334 17.486 2.848 1.125 5.232 3.181 6.763 5.833l12.477 21.576c3.305.132 6.622.218 9.959.218 27.089 0 53.147-4.407 77.508-12.525z" fill="#f9ba8f"/><path d="m149.645 331.557 5.158-2.978c2.962-1.71 6.785-.686 8.495 2.276l5.593 9.688c1.71 2.962.686 6.785-2.276 8.495l-5.158 2.978c-2.962 1.71-6.785.686-8.495-2.276l-5.593-9.688c-1.711-2.963-.687-6.785 2.276-8.495z" fill="#f9dfcd"/><path d="m189.278 432.073c2.941-1.698 3.949-5.459 2.251-8.4l-10.066-17.435c.668 1.157.246 2.636-.934 3.261-2.326 1.232-5.584 3.015-7.57 6.608l7.919 13.716c1.698 2.941 5.459 3.948 8.4 2.25z" fill="#fd995b"/><path d="m403.392 62.563h-294.784c-59.983 0-108.608 48.625-108.608 108.608 0 59.983 48.626 108.609 108.608 108.609 9.148 0 17.73 4.43 23.028 11.888l11.232 15.811c3.85 5.42 11.898 5.42 15.748 0l11.232-15.811c5.298-7.458 13.88-11.888 23.028-11.888h210.515c59.983 0 108.609-48.626 108.609-108.609 0-59.983-48.626-108.608-108.608-108.608z" fill="#e9efff"/><path d="m108.608 62.563c-59.983 0-108.608 48.625-108.608 108.608v.001c0 59.982 48.626 108.608 108.608 108.608 9.148 0 17.73 4.43 23.028 11.888l11.232 15.811c3.85 5.42 11.898 5.42 15.748 0l11.232-15.811c5.298-7.458 13.88-11.888 23.028-11.888h131.215c-35.271-28.1-5.213-58.009-5.213-58.009l-30.681-100.566c-32.498-21.509-11.502-58.642-11.502-58.642h-168.087z" fill="#bec8f7"/><path d="m498.886 288.249c-17.659 12.774-40.506 23.295-67.869 23.295-69.654 0-138.772 9.494-91.213 97.165 13.431 24.76 24.77 45.316 34.128 62.072 66.793-36.75 114.592-103.74 124.954-182.532z" fill="#73c3f9"/><path d="m233.564 479.208 12.477 21.576c3.305.132 6.622.218 9.959.218 27.089 0 53.147-4.407 77.508-12.525l-31.609-54.663c-17.963 50.934-75.099 39.561-75.099 39.561 2.849 1.124 5.233 3.181 6.764 5.833z" fill="#fd995b"/><g><circle cx="428.003" cy="171.368" fill="#ff4155" r="52.571"/><path d="m480.574 171.368c0-29.034-23.537-52.571-52.571-52.571-7.062 0-13.793 1.402-19.945 3.927-.874 7.438-1.084 23.478 11.774 30.522l-4.766 9.33-4.204 7.029 2.908 4.275s-7.802 10.734 6.062 14.631 21.908 13.96 21.908 13.96-7.696 13.225 8.536 16.517c17.897-8.384 30.298-26.55 30.298-47.62z" fill="#ff7186"/><g fill="#3c58a0"><path d="m445.537 193.684c-10.16-8.58-24.907-8.579-35.067 0-2.11 1.782-2.376 4.936-.595 7.046.997 1.181 2.423 1.784 3.856 1.774l28.009-.032c1.605.183 3.27-.413 4.392-1.742 1.781-2.109 1.515-5.263-.595-7.046z"/><ellipse cx="404.501" cy="169.605" rx="10.565" ry="8.909"/><ellipse cx="451.504" cy="169.605" rx="10.565" ry="8.909"/></g><g><path d="m432.433 161.727c-1.926-1.979-1.882-5.145.098-7.07 1.979-1.926 5.144-1.883 7.07.098 2.321 2.386 5.814 3.124 8.903 1.88l11.698-4.713c2.563-1.036 5.474.209 6.506 2.77 1.032 2.562-.208 5.474-2.77 6.506l-11.698 4.713c-6.839 2.755-14.622 1.145-19.807-4.184z" fill="#cc0053"/></g><g><path d="m403.766 165.91-11.697-4.712c-2.561-1.031-3.802-3.944-2.77-6.506 1.031-2.562 3.945-3.804 6.506-2.77l11.697 4.712c3.089 1.244 6.583.506 8.903-1.88 1.928-1.982 5.092-2.021 7.07-.098 1.98 1.926 2.023 5.092.098 7.07-5.163 5.308-12.939 6.951-19.807 4.184z" fill="#cc0053"/></g></g><g><circle cx="150.743" cy="171.171" fill="#ffdd40" r="81.428"/><path d="m232.171 171.171c0-44.972-36.457-81.428-81.428-81.428-8.865 0-17.391 1.436-25.381 4.055-.41.468-18.674 21.537-.593 39.618 18.284 18.284-3.933 31.355-3.933 31.355l7.011 11.721s-6.745 18.736 14.497 24.295c21.242 5.558 30.561 22.771 30.561 22.771s-3.869 18.294 11.549 21.731c28.142-12.821 47.717-41.174 47.717-74.118z" fill="#ffe98d"/><ellipse cx="114.782" cy="171.475" fill="#3c58a0" rx="13.799" ry="15.683"/><ellipse cx="186.703" cy="171.475" fill="#3c58a0" rx="13.799" ry="15.683"/><g><path d="m167.909 221.731c-9.945-8.401-24.383-8.401-34.332 0-3.269 2.758-8.155 2.348-10.914-.921-2.759-3.267-2.348-8.153.921-10.914 15.737-13.288 38.579-13.29 54.317 0 3.269 2.761 3.68 7.646.921 10.914-2.763 3.273-7.653 3.676-10.913.921z" fill="#ff9100"/></g><g><path d="m200.574 153.781c-5.266-2.892-10.959-4.73-16.92-5.465l-8.643-1.065c-3.82-.47-6.536-3.949-6.064-7.77.47-3.821 3.948-6.542 7.77-6.064l8.642 1.065c7.725.951 15.102 3.334 21.925 7.081 3.375 1.853 4.607 6.09 2.754 9.464-1.857 3.384-6.101 4.603-9.464 2.754z" fill="#ffb332"/></g><g><path d="m91.447 151.026c-1.853-3.375-.62-7.611 2.755-9.464 6.823-3.747 14.2-6.129 21.927-7.081l8.64-1.065c3.832-.476 7.301 2.243 7.77 6.064.472 3.821-2.245 7.3-6.064 7.77l-8.642 1.065c-5.963.735-11.656 2.573-16.922 5.465-3.39 1.86-7.619.608-9.464-2.754z" fill="#ffb332"/></g><path d="m219.172 208.885c-4.644-6.999-9.049-14.831-11.949-22.717-.655-1.783-3.159-1.783-3.815 0-2.9 7.886-7.305 15.718-11.949 22.717-7.345 11.07.571 25.853 13.857 25.853 13.285 0 21.202-14.783 13.856-25.853z" fill="#73c3f9"/><circle cx="209.817" cy="219.058" fill="#9bd8f9" r="7.315"/></g><g><ellipse cx="304.571" cy="171.368" fill="#ffb332" rx="52.571" ry="52.571" transform="matrix(.924 -.383 .383 .924 -42.396 129.599)"/><path d="m357.141 171.368c0-29.034-23.537-52.571-52.571-52.571-5.127 0-10.078.748-14.763 2.117-.491.348-7.407 5.413-4.884 13.013 2.615 7.878 9.189 16.85 9.189 16.85s-3.338 11.418 10.458 15.749c13.797 4.331 10.237 40.438 10.237 40.438s-3.932 11.055 7.233 13.989c20.444-7.203 35.101-26.677 35.101-49.585z" fill="#ffdd40"/><path d="m304.571 166.526c-12 0-23.591 1.748-34.537 4.998-3.96 1.176-6.062 5.412-4.647 9.293 5.833 15.995 21.17 27.418 39.184 27.418 18.087 0 33.475-11.515 39.254-27.612 1.35-3.761-.762-7.92-4.591-9.061-10.983-3.275-22.617-5.036-34.663-5.036z" fill="#ff9100"/><path d="m304.571 183.476c-6.337 6.337-15.503 16.126-19.189 20.083 5.744 2.984 12.267 4.676 19.189 4.676 18.087 0 33.475-11.515 39.254-27.613 1.35-3.761-.762-7.92-4.591-9.061-10.982-3.274-22.617-5.036-34.663-5.036 0 .001 8.097 8.854 0 16.951z" fill="#ff7300"/><path d="m304.571 208.235c11.445 0 21.805-4.614 29.338-12.079-7.351-7.802-17.772-12.681-29.338-12.681-11.565 0-21.986 4.878-29.337 12.68 7.533 7.465 17.892 12.08 29.337 12.08z" fill="#ff4155"/><g><path d="m332.076 158.333-17.048-7.557c-2.99-1.325-3.623-5.298-1.195-7.488l10.383-9.361c1.855-1.67 4.711-1.523 6.383.33 1.671 1.854 1.523 4.712-.33 6.383l-5.21 4.696 10.679 4.734c2.282 1.011 3.311 3.681 2.3 5.963-1.016 2.293-3.692 3.308-5.962 2.3z" fill="#3c58a0"/></g><g><path d="m271.102 156.033c-1.011-2.282.018-4.952 2.3-5.963l10.679-4.734-5.21-4.696c-1.854-1.671-2.002-4.529-.33-6.383 1.671-1.854 4.529-2.001 6.383-.33l10.383 9.361c2.428 2.19 1.795 6.163-1.195 7.488l-17.048 7.557c-2.266 1.007-4.944-.005-5.962-2.3z" fill="#3c58a0"/></g></g></g></svg>